<svg width="36" height="37" viewBox="0 0 36 37" fill="none" xmlns="http://www.w3.org/2000/svg">
<g clip-path="url(#clip0_541_785)">
<path d="M12.342 22.6869H9V19.6719H12.3915C15.2085 19.6719 15.396 22.6869 12.342 22.6869ZM22.479 18.6714H27.006C26.8305 16.0989 22.911 15.7059 22.479 18.6714ZM12.273 13.6719H9V16.6719H12.5835C15.093 16.6719 15.489 13.6719 12.273 13.6719ZM36 7.67188V28.6719C36 32.8134 32.643 36.1719 28.5 36.1719H7.5C3.357 36.1719 0 32.8134 0 28.6719V7.67188C0 3.53038 3.357 0.171875 7.5 0.171875H28.5C32.643 0.171875 36 3.53038 36 7.67188ZM21 12.1719H28.5V10.6719H21V12.1719ZM15.672 17.5989C18.5325 16.1379 18.4275 10.7739 12.9525 10.6929H6V25.6599H12.4665C19.2495 25.6599 19.134 18.8589 15.672 17.5989ZM29.9025 18.5019C29.4915 15.8574 27.6105 14.0769 24.528 14.0769C21.387 14.0769 19.5 16.0869 19.5 19.9974C19.5 23.9439 21.5505 25.6719 24.624 25.6719C27.6975 25.6719 29.283 23.9694 29.724 22.6719H26.5575C25.4535 23.9544 22.218 23.4534 22.407 20.6424H29.997C30.012 19.6914 29.979 19.0089 29.9025 18.5019Z" fill="#FAFAFA"/>
</g>
<defs>
<clipPath id="clip0_541_785">
<rect width="36" height="36" fill="white" transform="translate(0 0.171875)"/>
</clipPath>
</defs>
</svg>
