<svg width="115" height="118" viewBox="0 0 115 118" fill="none" xmlns="http://www.w3.org/2000/svg">
<path fill-rule="evenodd" clip-rule="evenodd" d="M38.1983 85.6073L28.2793 115.191L35.1471 117.493L45.8401 85.6018C43.2155 86.0047 40.6099 86.079 38.1983 85.6073ZM48.5183 77.6141C45.1951 78.5303 42.5427 78.8264 40.5366 78.6335L51.1264 47.0495L46.8254 49.2674L43.5056 42.8293L63.6672 32.4326L48.5183 77.6141Z" fill="#F9F9F9"/>
<path fill-rule="evenodd" clip-rule="evenodd" d="M64.5097 3.09718C65.2292 3.79243 65.8731 4.58726 66.4457 5.47558L68.0821 0.760079L74.9254 3.13493L69.6978 18.1984L62.677 17.4147C62.0866 12.1523 60.7139 9.50221 59.4762 8.30621C58.4632 7.32735 57.1443 6.94165 55.0668 7.48667C52.8354 8.07208 50.047 9.69884 46.9975 12.4191C43.9924 15.0999 40.9383 18.6601 38.1591 22.7847C32.5681 31.0826 28.3588 41.2567 27.6802 50.4911C27.0112 59.5948 29.7408 67.3746 37.5503 72.1741C39.6282 73.451 43.5478 73.5372 49.4312 71.7795C55.051 70.1006 61.451 67.0496 67.5838 63.6355C69.8561 62.3705 72.0714 61.0672 74.1726 59.7833L70.6794 70.2018C64.4777 73.6312 57.7169 76.8641 51.5047 78.72C45.4131 80.5399 38.7123 81.3903 33.7576 78.3454C23.0036 71.7363 19.6503 60.9247 20.4561 49.9602C21.2523 39.1263 26.0756 27.7553 32.152 18.7371C35.2065 14.2037 38.6449 10.1632 42.1756 7.01369C45.6619 3.90375 49.4528 1.47077 53.2287 0.480189C57.1584 -0.550778 61.2747 -0.0287151 64.5097 3.09718ZM80.2093 64.565C82.98 62.8268 85.4958 61.1671 87.6191 59.7266C89.764 58.2715 91.5161 57.0348 92.7353 56.1594C93.3451 55.7216 93.8219 55.3739 94.1485 55.1341C94.3117 55.0142 94.4374 54.9212 94.5234 54.8574L94.6223 54.7838L94.6587 54.7567C94.6594 54.7561 94.66 54.7557 92.4882 51.8573C90.3165 48.9589 90.3167 48.9587 90.3168 48.9586L90.3161 48.9591L90.3119 48.9622L90.292 48.9771L90.2068 49.0405C90.13 49.0975 90.0139 49.1834 89.8605 49.2961C89.5536 49.5214 89.0979 49.8538 88.5107 50.2754C87.4071 51.0677 85.8407 52.1743 83.9267 53.4779L80.2093 64.565Z" fill="#F9F9F9"/>
<path fill-rule="evenodd" clip-rule="evenodd" d="M51.1426 112.316L79.6627 27.2553L86.5306 29.5581L63.6835 97.6991L67.9844 95.4813L71.3043 101.919L51.1426 112.316Z" fill="#F9F9F9"/>
</svg>
