<svg width="36" height="37" viewBox="0 0 36 37" fill="none" xmlns="http://www.w3.org/2000/svg">
<g clip-path="url(#clip0_541_783)">
<path d="M28.5 0.171875H7.5C3.3585 0.171875 0 3.53038 0 7.67188V28.6719C0 32.8134 3.3585 36.1719 7.5 36.1719H28.5C32.643 36.1719 36 32.8134 36 28.6719V7.67188C36 3.53038 32.643 0.171875 28.5 0.171875ZM12 28.6719H7.5V12.1719H12V28.6719ZM9.75 10.2699C8.301 10.2699 7.125 9.08488 7.125 7.62387C7.125 6.16288 8.301 4.97787 9.75 4.97787C11.199 4.97787 12.375 6.16288 12.375 7.62387C12.375 9.08488 11.2005 10.2699 9.75 10.2699ZM30 28.6719H25.5V20.2659C25.5 15.2139 19.5 15.5964 19.5 20.2659V28.6719H15V12.1719H19.5V14.8194C21.594 10.9404 30 10.6539 30 18.5334V28.6719Z" fill="#FAFAFA"/>
</g>
<defs>
<clipPath id="clip0_541_783">
<rect width="36" height="36" fill="white" transform="translate(0 0.171875)"/>
</clipPath>
</defs>
</svg>
