<svg width="156" height="220" viewBox="0 0 156 220" fill="none" xmlns="http://www.w3.org/2000/svg">
<path fill-rule="evenodd" clip-rule="evenodd" d="M100.884 40.996L114.593 5.91547L99.6901 0.092041L93.6445 15.5632C92.5504 14.1372 91.3387 12.8447 90.0031 11.6959C83.2724 5.90642 74.9467 5.05694 67.129 6.88264C52.2731 10.352 36.3984 23.9169 24.2284 39.995C11.8653 56.3282 1.90313 77.1039 0.251079 97.115C-0.582577 107.213 0.68488 117.378 5.11768 126.639C9.58679 135.976 17.0469 143.911 27.7737 149.779C37.3303 155.008 50.7675 154.87 63.6157 153.08C71.8145 151.939 80.5454 150 89.206 147.663L72.0285 193.268L66.2997 208.477L81.9776 203.88L112.577 194.907L107.714 179.588L92.7929 183.964L138.914 61.5167L123.878 55.6111L96.2502 128.961C84.6595 132.544 72.8012 135.576 62.22 137.118L83.0242 81.8845L89.1574 65.6013L72.6767 71.401L43.7317 81.5869L49.3912 96.6484L61.8554 92.2621L44.6158 138.032C40.6866 137.71 37.6175 136.927 35.4528 135.743C27.4417 131.36 22.4629 125.817 19.5496 119.731C16.6001 113.569 15.5418 106.365 16.1968 98.4314C17.5221 82.3785 25.7947 64.4364 36.9858 49.6515C48.37 34.6116 61.3688 24.6584 70.7676 22.4634C75.0773 21.457 77.7242 22.2388 79.5693 23.8258C81.7249 25.68 84.3458 29.9592 85.496 39.0847L100.884 40.996ZM134.576 115.16L126.99 135.298C132.098 133.38 136.764 131.54 140.784 129.908C145.415 128.027 149.204 126.418 151.843 125.274C153.163 124.703 154.196 124.247 154.903 123.933C155.257 123.776 155.529 123.654 155.716 123.57L155.931 123.473L155.988 123.447L156.005 123.439L156.01 123.437C156.011 123.436 156.013 123.436 152.702 116.153C149.391 108.87 149.391 108.87 149.391 108.87L149.39 108.871L149.381 108.875L149.338 108.894L149.154 108.977C148.988 109.052 148.736 109.165 148.404 109.312C147.74 109.608 146.754 110.042 145.483 110.593C142.942 111.694 139.267 113.255 134.765 115.083L134.576 115.16ZM16.1388 213.636L33.3666 167.897C38.566 169.338 44.1965 169.912 49.8504 169.958L31.1743 219.541L16.1388 213.636Z" fill="#F9F9F9"/>
</svg>
